<?xml version="1.0" encoding="UTF-8"?>
<svg xmlns="http://www.w3.org/2000/svg" xmlns:xlink="http://www.w3.org/1999/xlink" width="10px" height="11px" viewBox="0 0 10 10" version="1.1">
<g id="surface1">
<path style=" stroke:none;fill-rule:nonzero;fill:rgb(100%,100%,100%);fill-opacity:1;" d="M 9.589844 6.492188 C 9.585938 5.878906 9.183594 5.328125 8.578125 5.105469 L 9.574219 1.609375 C 9.613281 1.457031 9.578125 1.296875 9.476562 1.171875 C 9.371094 1.058594 9.21875 0.996094 9.054688 1 L 1.757812 1 L 1.582031 0.371094 C 1.519531 0.152344 1.308594 0 1.066406 0 L 0 0 L 0 1 L 0.65625 1 L 1.976562 5.625 C 2.042969 5.847656 2.261719 6 2.507812 5.992188 L 7.992188 5.992188 C 8.277344 6.003906 8.503906 6.222656 8.503906 6.492188 C 8.503906 6.761719 8.277344 6.980469 7.992188 6.992188 L 1.066406 6.992188 C 0.867188 6.984375 0.683594 7.074219 0.582031 7.234375 C 0.480469 7.390625 0.480469 7.589844 0.582031 7.75 C 0.683594 7.90625 0.867188 8 1.066406 7.992188 L 1.695312 7.992188 C 1.453125 8.613281 1.675781 9.308594 2.242188 9.703125 C 2.808594 10.097656 3.582031 10.097656 4.148438 9.703125 C 4.714844 9.308594 4.9375 8.613281 4.699219 7.992188 L 5.957031 7.992188 C 5.703125 8.644531 5.960938 9.371094 6.578125 9.753906 C 7.195312 10.136719 8.015625 10.070312 8.550781 9.59375 C 9.089844 9.117188 9.210938 8.355469 8.84375 7.753906 C 9.304688 7.480469 9.585938 7.003906 9.589844 6.492188 Z M 7.507812 4.992188 L 2.929688 4.992188 L 2.046875 1.996094 L 8.363281 1.996094 L 7.507812 4.996094 Z M 3.195312 8.988281 C 3 8.996094 2.8125 8.90625 2.710938 8.746094 C 2.613281 8.589844 2.613281 8.390625 2.710938 8.230469 C 2.8125 8.074219 3 7.980469 3.195312 7.988281 C 3.480469 8.003906 3.703125 8.222656 3.703125 8.488281 C 3.703125 8.753906 3.480469 8.976562 3.195312 8.988281 Z M 7.457031 8.988281 C 7.261719 8.996094 7.074219 8.90625 6.976562 8.746094 C 6.875 8.589844 6.875 8.390625 6.976562 8.230469 C 7.074219 8.074219 7.261719 7.980469 7.457031 7.988281 C 7.742188 8.003906 7.964844 8.222656 7.964844 8.488281 C 7.964844 8.753906 7.742188 8.976562 7.457031 8.988281 Z M 7.457031 8.988281 "/>
</g>
</svg>
